{
    "asset" : {
        "generator" : "Khronos glTF Blender I/O v1.5.17",
        "version" : "2.0"
    },
    "scene" : 0,
    "scenes" : [
        {
            "extras" : {
                "glTF2ExportSettings" : {
                    "export_animations" : 0,
                    "export_apply" : 1,
                    "export_extras" : 1,
                    "export_format" : "GLTF_SEPARATE",
                    "export_morph" : 0,
                    "export_skins" : 0,
                    "export_tangents" : 1
                }
            },
            "name" : "Scene",
            "nodes" : [
                0,
                1,
                2,
                3,
                4,
                5
            ]
        }
    ],
    "nodes" : [
        {
            "extras" : {
                "shader" : "basic,color"
            },
            "mesh" : 0,
            "name" : "CylinderY"
        },
        {
            "extras" : {
                "shader" : "basic,color"
            },
            "mesh" : 1,
            "name" : "CylinderX"
        },
        {
            "extras" : {
                "shader" : "basic,color"
            },
            "mesh" : 2,
            "name" : "CylinderZ"
        },
        {
            "extras" : {
                "shader" : "basic,color"
            },
            "mesh" : 3,
            "name" : "IcosphereX"
        },
        {
            "extras" : {
                "shader" : "basic,color"
            },
            "mesh" : 4,
            "name" : "IcosphereZ"
        },
        {
            "extras" : {
                "shader" : "basic,color"
            },
            "mesh" : 5,
            "name" : "IcosphereY"
        }
    ],
    "materials" : [
        {
            "doubleSided" : true,
            "name" : "MovePointerY",
            "pbrMetallicRoughness" : {
                "baseColorFactor" : [
                    0,
                    1,
                    0,
                    1
                ],
                "metallicFactor" : 0,
                "roughnessFactor" : 0
            }
        },
        {
            "doubleSided" : true,
            "name" : "MovePointerX",
            "pbrMetallicRoughness" : {
                "baseColorFactor" : [
                    1,
                    0,
                    0,
                    1
                ],
                "metallicFactor" : 0,
                "roughnessFactor" : 0.5
            }
        },
        {
            "doubleSided" : true,
            "name" : "MovePointerZ",
            "pbrMetallicRoughness" : {
                "baseColorFactor" : [
                    0,
                    0,
                    1,
                    1
                ],
                "metallicFactor" : 0,
                "roughnessFactor" : 0.5
            }
        }
    ],
    "meshes" : [
        {
            "name" : "Cylinder",
            "primitives" : [
                {
                    "attributes" : {
                        "POSITION" : 0,
                        "NORMAL" : 1,
                        "TEXCOORD_0" : 2
                    },
                    "indices" : 3,
                    "material" : 0
                }
            ]
        },
        {
            "name" : "Cylinder.001",
            "primitives" : [
                {
                    "attributes" : {
                        "POSITION" : 4,
                        "NORMAL" : 5,
                        "TEXCOORD_0" : 6
                    },
                    "indices" : 7,
                    "material" : 1
                }
            ]
        },
        {
            "name" : "Cylinder.002",
            "primitives" : [
                {
                    "attributes" : {
                        "POSITION" : 8,
                        "NORMAL" : 9,
                        "TEXCOORD_0" : 10
                    },
                    "indices" : 3,
                    "material" : 2
                }
            ]
        },
        {
            "name" : "Icosphere",
            "primitives" : [
                {
                    "attributes" : {
                        "POSITION" : 11,
                        "NORMAL" : 12,
                        "TANGENT" : 13,
                        "TEXCOORD_0" : 14
                    },
                    "indices" : 15,
                    "material" : 1
                }
            ]
        },
        {
            "name" : "Icosphere.001",
            "primitives" : [
                {
                    "attributes" : {
                        "POSITION" : 16,
                        "NORMAL" : 17,
                        "TANGENT" : 18,
                        "TEXCOORD_0" : 19
                    },
                    "indices" : 20,
                    "material" : 2
                }
            ]
        },
        {
            "name" : "Icosphere.002",
            "primitives" : [
                {
                    "attributes" : {
                        "POSITION" : 21,
                        "NORMAL" : 22,
                        "TANGENT" : 23,
                        "TEXCOORD_0" : 24
                    },
                    "indices" : 25,
                    "material" : 0
                }
            ]
        }
    ],
    "accessors" : [
        {
            "bufferView" : 0,
            "componentType" : 5126,
            "count" : 72,
            "max" : [
                0.04460488632321358,
                0.721653938293457,
                0.04460488632321358
            ],
            "min" : [
                -0.04460488632321358,
                0,
                -0.04460488632321358
            ],
            "type" : "VEC3"
        },
        {
            "bufferView" : 1,
            "componentType" : 5126,
            "count" : 72,
            "type" : "VEC3"
        },
        {
            "bufferView" : 2,
            "componentType" : 5126,
            "count" : 72,
            "type" : "VEC2"
        },
        {
            "bufferView" : 3,
            "componentType" : 5123,
            "count" : 132,
            "type" : "SCALAR"
        },
        {
            "bufferView" : 4,
            "componentType" : 5126,
            "count" : 72,
            "max" : [
                0.7204089164733887,
                0.04460490494966507,
                0.04460488632321358
            ],
            "min" : [
                0,
                -0.04460490494966507,
                -0.04460488632321358
            ],
            "type" : "VEC3"
        },
        {
            "bufferView" : 5,
            "componentType" : 5126,
            "count" : 72,
            "type" : "VEC3"
        },
        {
            "bufferView" : 6,
            "componentType" : 5126,
            "count" : 72,
            "type" : "VEC2"
        },
        {
            "bufferView" : 7,
            "componentType" : 5123,
            "count" : 132,
            "type" : "SCALAR"
        },
        {
            "bufferView" : 8,
            "componentType" : 5126,
            "count" : 72,
            "max" : [
                0.04460488632321358,
                0.04460490494966507,
                0
            ],
            "min" : [
                -0.04460488632321358,
                -0.04460490494966507,
                -0.7206367254257202
            ],
            "type" : "VEC3"
        },
        {
            "bufferView" : 9,
            "componentType" : 5126,
            "count" : 72,
            "type" : "VEC3"
        },
        {
            "bufferView" : 10,
            "componentType" : 5126,
            "count" : 72,
            "type" : "VEC2"
        },
        {
            "bufferView" : 11,
            "componentType" : 5126,
            "count" : 240,
            "max" : [
                1.0902115106582642,
                0.20000000298023224,
                0.20000001788139343
            ],
            "min" : [
                0.7097883820533752,
                -0.20000000298023224,
                -0.20000001788139343
            ],
            "type" : "VEC3"
        },
        {
            "bufferView" : 12,
            "componentType" : 5126,
            "count" : 240,
            "type" : "VEC3"
        },
        {
            "bufferView" : 13,
            "componentType" : 5126,
            "count" : 240,
            "type" : "VEC4"
        },
        {
            "bufferView" : 14,
            "componentType" : 5126,
            "count" : 240,
            "type" : "VEC2"
        },
        {
            "bufferView" : 15,
            "componentType" : 5123,
            "count" : 240,
            "type" : "SCALAR"
        },
        {
            "bufferView" : 16,
            "componentType" : 5126,
            "count" : 240,
            "max" : [
                0.19021157920360565,
                0.20000000298023224,
                -0.6999999284744263
            ],
            "min" : [
                -0.19021157920360565,
                -0.20000000298023224,
                -1.100000023841858
            ],
            "type" : "VEC3"
        },
        {
            "bufferView" : 17,
            "componentType" : 5126,
            "count" : 240,
            "type" : "VEC3"
        },
        {
            "bufferView" : 18,
            "componentType" : 5126,
            "count" : 240,
            "type" : "VEC4"
        },
        {
            "bufferView" : 19,
            "componentType" : 5126,
            "count" : 240,
            "type" : "VEC2"
        },
        {
            "bufferView" : 20,
            "componentType" : 5123,
            "count" : 240,
            "type" : "SCALAR"
        },
        {
            "bufferView" : 21,
            "componentType" : 5126,
            "count" : 240,
            "max" : [
                0.19021157920360565,
                1.100000023841858,
                0.20000001788139343
            ],
            "min" : [
                -0.19021157920360565,
                0.699999988079071,
                -0.20000001788139343
            ],
            "type" : "VEC3"
        },
        {
            "bufferView" : 22,
            "componentType" : 5126,
            "count" : 240,
            "type" : "VEC3"
        },
        {
            "bufferView" : 23,
            "componentType" : 5126,
            "count" : 240,
            "type" : "VEC4"
        },
        {
            "bufferView" : 24,
            "componentType" : 5126,
            "count" : 240,
            "type" : "VEC2"
        },
        {
            "bufferView" : 25,
            "componentType" : 5123,
            "count" : 240,
            "type" : "SCALAR"
        }
    ],
    "bufferViews" : [
        {
            "buffer" : 0,
            "byteLength" : 864,
            "byteOffset" : 0
        },
        {
            "buffer" : 0,
            "byteLength" : 864,
            "byteOffset" : 864
        },
        {
            "buffer" : 0,
            "byteLength" : 576,
            "byteOffset" : 1728
        },
        {
            "buffer" : 0,
            "byteLength" : 264,
            "byteOffset" : 2304
        },
        {
            "buffer" : 0,
            "byteLength" : 864,
            "byteOffset" : 2568
        },
        {
            "buffer" : 0,
            "byteLength" : 864,
            "byteOffset" : 3432
        },
        {
            "buffer" : 0,
            "byteLength" : 576,
            "byteOffset" : 4296
        },
        {
            "buffer" : 0,
            "byteLength" : 264,
            "byteOffset" : 4872
        },
        {
            "buffer" : 0,
            "byteLength" : 864,
            "byteOffset" : 5136
        },
        {
            "buffer" : 0,
            "byteLength" : 864,
            "byteOffset" : 6000
        },
        {
            "buffer" : 0,
            "byteLength" : 576,
            "byteOffset" : 6864
        },
        {
            "buffer" : 0,
            "byteLength" : 2880,
            "byteOffset" : 7440
        },
        {
            "buffer" : 0,
            "byteLength" : 2880,
            "byteOffset" : 10320
        },
        {
            "buffer" : 0,
            "byteLength" : 3840,
            "byteOffset" : 13200
        },
        {
            "buffer" : 0,
            "byteLength" : 1920,
            "byteOffset" : 17040
        },
        {
            "buffer" : 0,
            "byteLength" : 480,
            "byteOffset" : 18960
        },
        {
            "buffer" : 0,
            "byteLength" : 2880,
            "byteOffset" : 19440
        },
        {
            "buffer" : 0,
            "byteLength" : 2880,
            "byteOffset" : 22320
        },
        {
            "buffer" : 0,
            "byteLength" : 3840,
            "byteOffset" : 25200
        },
        {
            "buffer" : 0,
            "byteLength" : 1920,
            "byteOffset" : 29040
        },
        {
            "buffer" : 0,
            "byteLength" : 480,
            "byteOffset" : 30960
        },
        {
            "buffer" : 0,
            "byteLength" : 2880,
            "byteOffset" : 31440
        },
        {
            "buffer" : 0,
            "byteLength" : 2880,
            "byteOffset" : 34320
        },
        {
            "buffer" : 0,
            "byteLength" : 3840,
            "byteOffset" : 37200
        },
        {
            "buffer" : 0,
            "byteLength" : 1920,
            "byteOffset" : 41040
        },
        {
            "buffer" : 0,
            "byteLength" : 480,
            "byteOffset" : 42960
        }
    ],
    "buffers" : [
        {
            "byteLength" : 43440,
            "uri" : "rotate-pointer.bin"
        }
    ]
}
