<?xml version="1.0" encoding="UTF-8" standalone="no"?>
<!-- Created with Friction - https://friction.graphics -->
<svg xmlns="http://www.w3.org/2000/svg" xmlns:xlink="http://www.w3.org/1999/xlink" viewBox="0 0 512 512">
 <g transform="translate(0 0)">
  <g transform="translate(260.848 260.97)">
   <g transform="rotate(0)">
    <g transform="scale(1 1)">
     <g transform="skewX(0) skewY(0)">
      <g transform="translate(0 0)" opacity="1">
       <path d="M0 0C42.5792 5.68434e-14 140.421 -176.658 5.68434e-14 -177.564C-140.421 -178.47 -55.2623 5.68434e-14 0 0Z" id="Path3" stroke-linecap="round" stroke="none" stroke-width="10" fill="url(#0x00000256e7001190)" stroke-linejoin="round"/>
      </g>
     </g>
    </g>
   </g>
  </g>
 </g>
 <g transform="translate(0 0)">
  <g transform="translate(259.784 260.97)">
   <g transform="rotate(90)">
    <g transform="scale(1 1)">
     <g transform="skewX(0) skewY(0)">
      <g transform="translate(0 0)" opacity="1">
       <path d="M0 0C42.5792 5.68434e-14 140.421 -176.658 5.68434e-14 -177.564C-140.421 -178.47 -55.2623 5.68434e-14 0 0Z" id="Path4" stroke-linecap="round" stroke="none" stroke-width="10" fill="url(#0x00000256e70016d0)" stroke-linejoin="round"/>
      </g>
     </g>
    </g>
   </g>
  </g>
 </g>
 <g transform="translate(0 0)">
  <g transform="translate(259.784 260)">
   <g transform="rotate(180)">
    <g transform="scale(1 1)">
     <g transform="skewX(0) skewY(0)">
      <g transform="translate(0 0)" opacity="1">
       <path d="M0 0C42.5792 5.68434e-14 142.549 -166.018 2.12797 -166.924C-138.293 -167.83 -55.2623 5.68434e-14 0 0Z" id="Path5" stroke-linecap="round" stroke="none" stroke-width="10" fill="url(#0x00000256e7001c10)" stroke-linejoin="round"/>
      </g>
     </g>
    </g>
   </g>
  </g>
 </g>
 <g transform="translate(0 0)">
  <g transform="translate(259.784 260)">
   <g transform="rotate(270)">
    <g transform="scale(1 1)">
     <g transform="skewX(0) skewY(0)">
      <g transform="translate(0 0)" opacity="1">
       <path d="M0 0C42.5792 5.68434e-14 140.421 -176.658 5.68434e-14 -177.564C-140.421 -178.47 -55.2623 5.68434e-14 0 0Z" id="Path6" stroke-linecap="round" stroke="none" stroke-width="10" fill="url(#0x00000256e7001820)" stroke-linejoin="round"/>
      </g>
     </g>
    </g>
   </g>
  </g>
 </g>
 <g transform="translate(0 0)">
  <g transform="translate(259.784 258.993)">
   <g transform="rotate(225)">
    <g transform="scale(1 1)">
     <g transform="skewX(0) skewY(0)">
      <g transform="translate(0 0)" opacity="1">
       <path d="M0 0C42.5792 5.68434e-14 140.421 -176.658 5.68434e-14 -177.564C-140.421 -178.47 -55.2623 5.68434e-14 0 0Z" id="Path2" stroke-linecap="round" stroke="none" stroke-width="10" fill="url(#0x00000256e70012e0)" stroke-linejoin="round"/>
      </g>
     </g>
    </g>
   </g>
  </g>
 </g>
 <g transform="translate(0 0)">
  <g transform="translate(259.784 260.97)">
   <g transform="rotate(135)">
    <g transform="scale(1 1)">
     <g transform="skewX(0) skewY(0)">
      <g transform="translate(0 0)" opacity="1">
       <path d="M0 0C42.5792 5.68434e-14 140.421 -176.658 5.68434e-14 -177.564C-140.421 -178.47 -55.2623 5.68434e-14 0 0Z" id="Path1" stroke-linecap="round" stroke="none" stroke-width="10" fill="url(#0x00000256e7001580)" stroke-linejoin="round"/>
      </g>
     </g>
    </g>
   </g>
  </g>
 </g>
 <g transform="translate(0 0)">
  <g transform="translate(260.848 259.963)">
   <g transform="rotate(45)">
    <g transform="scale(1 1)">
     <g transform="skewX(0) skewY(0)">
      <g transform="translate(0 0)" opacity="1">
       <path d="M0 0C42.5792 5.68434e-14 140.421 -176.658 5.68434e-14 -177.564C-140.421 -178.47 -55.2623 5.68434e-14 0 0Z" id="Path0" stroke-linecap="round" stroke="none" stroke-width="10" fill="url(#0x00000256e7001970)" stroke-linejoin="round"/>
      </g>
     </g>
    </g>
   </g>
  </g>
 </g>
 <g transform="translate(0 0)">
  <g transform="translate(260.848 259.963)">
   <g transform="rotate(315)">
    <g transform="scale(1 1)">
     <g transform="skewX(0) skewY(0)">
      <g transform="translate(0 0)" opacity="1">
       <path d="M0 0C42.5792 5.68434e-14 140.421 -176.658 5.68434e-14 -177.564C-140.421 -178.47 -55.2623 5.68434e-14 0 0Z" id="Path" stroke-linecap="round" stroke="none" stroke-width="10" fill="url(#0x00000256e7001ac0)" stroke-linejoin="round"/>
      </g>
     </g>
    </g>
   </g>
  </g>
 </g>
 <g transform="translate(0 83.8447)">
  <g transform="translate(259.784 205.434)">
   <g transform="rotate(0)">
    <g transform="scale(1 1)">
     <g transform="skewX(0) skewY(0)">
      <g transform="translate(0 -83.8447)" opacity="1">
       <ellipse cy="0" id="Circle" cx="0" stroke-linecap="round" stroke="none" ry="78.8447" rx="37.5091" stroke-width="10" fill="url(#0x00000256e7001eb0)" stroke-linejoin="round"/>
      </g>
     </g>
    </g>
   </g>
  </g>
 </g>
 <defs>
  <linearGradient id="0x00000256e6c8eef0">
   <stop offset="0" stop-color="rgba(0, 94, 0, 1)"/>
   <stop offset="1" stop-color="rgba(0, 44, 0, 1)"/>
  </linearGradient>
  <linearGradient id="0x00000256e7001190" x1="-1.08372" x2="-1.61605" y2="0.4703" gradientUnits="userSpaceOnUse" y1="-177.132" xlink:href="#0x00000256e6c8eef0"/>
  <linearGradient id="0x00000256e70016d0" x1="-1.08372" x2="-1.61605" y2="0.4703" gradientUnits="userSpaceOnUse" y1="-177.132" xlink:href="#0x00000256e6c8eef0"/>
  <linearGradient id="0x00000256e7001c10" x1="-1.08372" x2="-1.61605" y2="0.4703" gradientUnits="userSpaceOnUse" y1="-177.132" xlink:href="#0x00000256e6c8eef0"/>
  <linearGradient id="0x00000256e7001820" x1="-1.08372" x2="-1.61605" y2="0.4703" gradientUnits="userSpaceOnUse" y1="-177.132" xlink:href="#0x00000256e6c8eef0"/>
  <linearGradient id="0x00000256e70012e0" x1="-1.08372" x2="-1.61605" y2="0.4703" gradientUnits="userSpaceOnUse" y1="-177.132" xlink:href="#0x00000256e6c8eef0"/>
  <linearGradient id="0x00000256e7001580" x1="-1.08372" x2="-1.61605" y2="0.4703" gradientUnits="userSpaceOnUse" y1="-177.132" xlink:href="#0x00000256e6c8eef0"/>
  <linearGradient id="0x00000256e7001970" x1="-1.08372" x2="-1.61605" y2="0.4703" gradientUnits="userSpaceOnUse" y1="-177.132" xlink:href="#0x00000256e6c8eef0"/>
  <linearGradient id="0x00000256e7001ac0" x1="-1.08372" x2="-1.61605" y2="0.4703" gradientUnits="userSpaceOnUse" y1="-177.132" xlink:href="#0x00000256e6c8eef0"/>
  <linearGradient id="0x00000256e7001eb0" x1="0.223254" x2="-0.223254" y2="66.0004" gradientUnits="userSpaceOnUse" y1="-68.818" xlink:href="#0x00000256e6c8eef0"/>
 </defs>
</svg>

