{
	"asset":{
		"generator":"Khronos glTF Blender I/O v4.0.44",
		"version":"2.0"
	},
	"scene":0,
	"scenes":[
		{
			"name":"Scene",
			"nodes":[
				0
			]
		}
	],
	"nodes":[
		{
			"mesh":0,
			"name":"Suzanne"
		}
	],
	"meshes":[
		{
			"name":"Suzanne",
			"primitives":[
				{
					"attributes":{
						"COLOR_0":0,
						"POSITION":1,
						"NORMAL":2,
						"TEXCOORD_0":3,
						"TANGENT":4
					},
					"indices":5
				}
			]
		}
	],
	"accessors":[
		{
			"bufferView":0,
			"componentType":5126,
			"count":2887,
			"type":"VEC4"
		},
		{
			"bufferView":1,
			"componentType":5126,
			"count":2887,
			"max":[
				1.3671879768371582,
				0.984375,
				0.851561963558197
			],
			"min":[
				-1.3671879768371582,
				-0.9843749403953552,
				-0.8515620827674866
			],
			"type":"VEC3"
		},
		{
			"bufferView":2,
			"componentType":5126,
			"count":2887,
			"type":"VEC3"
		},
		{
			"bufferView":3,
			"componentType":5126,
			"count":2887,
			"type":"VEC2"
		},
		{
			"bufferView":4,
			"componentType":5126,
			"count":2887,
			"type":"VEC4"
		},
		{
			"bufferView":5,
			"componentType":5123,
			"count":2901,
			"type":"SCALAR"
		}
	],
	"bufferViews":[
		{
			"buffer":0,
			"byteLength":46192,
			"byteOffset":0,
			"target":34962
		},
		{
			"buffer":0,
			"byteLength":34644,
			"byteOffset":46192,
			"target":34962
		},
		{
			"buffer":0,
			"byteLength":34644,
			"byteOffset":80836,
			"target":34962
		},
		{
			"buffer":0,
			"byteLength":23096,
			"byteOffset":115480,
			"target":34962
		},
		{
			"buffer":0,
			"byteLength":46192,
			"byteOffset":138576,
			"target":34962
		},
		{
			"buffer":0,
			"byteLength":5802,
			"byteOffset":184768,
			"target":34963
		}
	],
	"buffers":[
		{
			"byteLength":190572,
			"uri":"monkey.bin"
		}
	]
}
