{
    "asset" : {
        "generator" : "Khronos glTF Blender I/O v1.5.17",
        "version" : "2.0"
    },
    "scene" : 0,
    "scenes" : [
        {
            "extras" : {
                "glTF2ExportSettings" : {
                    "export_animations" : 0,
                    "export_apply" : 1,
                    "export_extras" : 1,
                    "export_format" : "GLTF_SEPARATE",
                    "export_morph" : 0,
                    "export_skins" : 0,
                    "export_tangents" : 1
                }
            },
            "name" : "Scene",
            "nodes" : [
                0,
                1,
                2,
                3,
                4,
                5
            ]
        }
    ],
    "nodes" : [
        {
            "extras" : {
                "shader" : "basic,color"
            },
            "mesh" : 0,
            "name" : "CylinderY"
        },
        {
            "extras" : {
                "shader" : "basic,color"
            },
            "mesh" : 1,
            "name" : "CylinderX"
        },
        {
            "extras" : {
                "shader" : "basic,color"
            },
            "mesh" : 2,
            "name" : "CylinderZ"
        },
        {
            "extras" : {
                "shader" : "basic,color"
            },
            "mesh" : 3,
            "name" : "CubeZ"
        },
        {
            "extras" : {
                "shader" : "basic,color"
            },
            "mesh" : 4,
            "name" : "CubeY"
        },
        {
            "extras" : {
                "shader" : "basic,color"
            },
            "mesh" : 5,
            "name" : "CubeX"
        }
    ],
    "materials" : [
        {
            "doubleSided" : true,
            "name" : "MovePointerY",
            "pbrMetallicRoughness" : {
                "baseColorFactor" : [
                    0,
                    1,
                    0,
                    1
                ],
                "metallicFactor" : 0,
                "roughnessFactor" : 0
            }
        },
        {
            "doubleSided" : true,
            "name" : "MovePointerX",
            "pbrMetallicRoughness" : {
                "baseColorFactor" : [
                    1,
                    0,
                    0,
                    1
                ],
                "metallicFactor" : 0,
                "roughnessFactor" : 0.5
            }
        },
        {
            "doubleSided" : true,
            "name" : "MovePointerZ",
            "pbrMetallicRoughness" : {
                "baseColorFactor" : [
                    0,
                    0,
                    1,
                    1
                ],
                "metallicFactor" : 0,
                "roughnessFactor" : 0.5
            }
        }
    ],
    "meshes" : [
        {
            "name" : "Cylinder",
            "primitives" : [
                {
                    "attributes" : {
                        "POSITION" : 0,
                        "NORMAL" : 1,
                        "TEXCOORD_0" : 2
                    },
                    "indices" : 3,
                    "material" : 0
                }
            ]
        },
        {
            "name" : "Cylinder.001",
            "primitives" : [
                {
                    "attributes" : {
                        "POSITION" : 4,
                        "NORMAL" : 5,
                        "TEXCOORD_0" : 6
                    },
                    "indices" : 7,
                    "material" : 1
                }
            ]
        },
        {
            "name" : "Cylinder.002",
            "primitives" : [
                {
                    "attributes" : {
                        "POSITION" : 8,
                        "NORMAL" : 9,
                        "TEXCOORD_0" : 10
                    },
                    "indices" : 3,
                    "material" : 2
                }
            ]
        },
        {
            "name" : "Cube",
            "primitives" : [
                {
                    "attributes" : {
                        "POSITION" : 11,
                        "NORMAL" : 12,
                        "TANGENT" : 13,
                        "TEXCOORD_0" : 14
                    },
                    "indices" : 15,
                    "material" : 2
                }
            ]
        },
        {
            "name" : "Cube.001",
            "primitives" : [
                {
                    "attributes" : {
                        "POSITION" : 16,
                        "NORMAL" : 17,
                        "TANGENT" : 18,
                        "TEXCOORD_0" : 19
                    },
                    "indices" : 15,
                    "material" : 0
                }
            ]
        },
        {
            "name" : "Cube.002",
            "primitives" : [
                {
                    "attributes" : {
                        "POSITION" : 20,
                        "NORMAL" : 21,
                        "TANGENT" : 22,
                        "TEXCOORD_0" : 23
                    },
                    "indices" : 15,
                    "material" : 1
                }
            ]
        }
    ],
    "accessors" : [
        {
            "bufferView" : 0,
            "componentType" : 5126,
            "count" : 72,
            "max" : [
                0.04460488632321358,
                0.8055731058120728,
                0.04460488632321358
            ],
            "min" : [
                -0.04460488632321358,
                0,
                -0.04460488632321358
            ],
            "type" : "VEC3"
        },
        {
            "bufferView" : 1,
            "componentType" : 5126,
            "count" : 72,
            "type" : "VEC3"
        },
        {
            "bufferView" : 2,
            "componentType" : 5126,
            "count" : 72,
            "type" : "VEC2"
        },
        {
            "bufferView" : 3,
            "componentType" : 5123,
            "count" : 132,
            "type" : "SCALAR"
        },
        {
            "bufferView" : 4,
            "componentType" : 5126,
            "count" : 72,
            "max" : [
                0.8059526085853577,
                0.04460490494966507,
                0.04460488632321358
            ],
            "min" : [
                0,
                -0.04460490494966507,
                -0.04460488632321358
            ],
            "type" : "VEC3"
        },
        {
            "bufferView" : 5,
            "componentType" : 5126,
            "count" : 72,
            "type" : "VEC3"
        },
        {
            "bufferView" : 6,
            "componentType" : 5126,
            "count" : 72,
            "type" : "VEC2"
        },
        {
            "bufferView" : 7,
            "componentType" : 5123,
            "count" : 132,
            "type" : "SCALAR"
        },
        {
            "bufferView" : 8,
            "componentType" : 5126,
            "count" : 72,
            "max" : [
                0.04460488632321358,
                0.04460490494966507,
                0
            ],
            "min" : [
                -0.04460488632321358,
                -0.04460490494966507,
                -0.8094090223312378
            ],
            "type" : "VEC3"
        },
        {
            "bufferView" : 9,
            "componentType" : 5126,
            "count" : 72,
            "type" : "VEC3"
        },
        {
            "bufferView" : 10,
            "componentType" : 5126,
            "count" : 72,
            "type" : "VEC2"
        },
        {
            "bufferView" : 11,
            "componentType" : 5126,
            "count" : 24,
            "max" : [
                0.10000000149011612,
                0.10000000149011612,
                -0.7999999523162842
            ],
            "min" : [
                -0.10000000149011612,
                -0.10000000149011612,
                -1
            ],
            "type" : "VEC3"
        },
        {
            "bufferView" : 12,
            "componentType" : 5126,
            "count" : 24,
            "type" : "VEC3"
        },
        {
            "bufferView" : 13,
            "componentType" : 5126,
            "count" : 24,
            "type" : "VEC4"
        },
        {
            "bufferView" : 14,
            "componentType" : 5126,
            "count" : 24,
            "type" : "VEC2"
        },
        {
            "bufferView" : 15,
            "componentType" : 5123,
            "count" : 36,
            "type" : "SCALAR"
        },
        {
            "bufferView" : 16,
            "componentType" : 5126,
            "count" : 24,
            "max" : [
                0.10000000149011612,
                1,
                0.10000000149011612
            ],
            "min" : [
                -0.10000000149011612,
                0.7999999523162842,
                -0.10000000149011612
            ],
            "type" : "VEC3"
        },
        {
            "bufferView" : 17,
            "componentType" : 5126,
            "count" : 24,
            "type" : "VEC3"
        },
        {
            "bufferView" : 18,
            "componentType" : 5126,
            "count" : 24,
            "type" : "VEC4"
        },
        {
            "bufferView" : 19,
            "componentType" : 5126,
            "count" : 24,
            "type" : "VEC2"
        },
        {
            "bufferView" : 20,
            "componentType" : 5126,
            "count" : 24,
            "max" : [
                1,
                0.10000000149011612,
                0.10000000149011612
            ],
            "min" : [
                0.7999999523162842,
                -0.10000000149011612,
                -0.10000000149011612
            ],
            "type" : "VEC3"
        },
        {
            "bufferView" : 21,
            "componentType" : 5126,
            "count" : 24,
            "type" : "VEC3"
        },
        {
            "bufferView" : 22,
            "componentType" : 5126,
            "count" : 24,
            "type" : "VEC4"
        },
        {
            "bufferView" : 23,
            "componentType" : 5126,
            "count" : 24,
            "type" : "VEC2"
        }
    ],
    "bufferViews" : [
        {
            "buffer" : 0,
            "byteLength" : 864,
            "byteOffset" : 0
        },
        {
            "buffer" : 0,
            "byteLength" : 864,
            "byteOffset" : 864
        },
        {
            "buffer" : 0,
            "byteLength" : 576,
            "byteOffset" : 1728
        },
        {
            "buffer" : 0,
            "byteLength" : 264,
            "byteOffset" : 2304
        },
        {
            "buffer" : 0,
            "byteLength" : 864,
            "byteOffset" : 2568
        },
        {
            "buffer" : 0,
            "byteLength" : 864,
            "byteOffset" : 3432
        },
        {
            "buffer" : 0,
            "byteLength" : 576,
            "byteOffset" : 4296
        },
        {
            "buffer" : 0,
            "byteLength" : 264,
            "byteOffset" : 4872
        },
        {
            "buffer" : 0,
            "byteLength" : 864,
            "byteOffset" : 5136
        },
        {
            "buffer" : 0,
            "byteLength" : 864,
            "byteOffset" : 6000
        },
        {
            "buffer" : 0,
            "byteLength" : 576,
            "byteOffset" : 6864
        },
        {
            "buffer" : 0,
            "byteLength" : 288,
            "byteOffset" : 7440
        },
        {
            "buffer" : 0,
            "byteLength" : 288,
            "byteOffset" : 7728
        },
        {
            "buffer" : 0,
            "byteLength" : 384,
            "byteOffset" : 8016
        },
        {
            "buffer" : 0,
            "byteLength" : 192,
            "byteOffset" : 8400
        },
        {
            "buffer" : 0,
            "byteLength" : 72,
            "byteOffset" : 8592
        },
        {
            "buffer" : 0,
            "byteLength" : 288,
            "byteOffset" : 8664
        },
        {
            "buffer" : 0,
            "byteLength" : 288,
            "byteOffset" : 8952
        },
        {
            "buffer" : 0,
            "byteLength" : 384,
            "byteOffset" : 9240
        },
        {
            "buffer" : 0,
            "byteLength" : 192,
            "byteOffset" : 9624
        },
        {
            "buffer" : 0,
            "byteLength" : 288,
            "byteOffset" : 9816
        },
        {
            "buffer" : 0,
            "byteLength" : 288,
            "byteOffset" : 10104
        },
        {
            "buffer" : 0,
            "byteLength" : 384,
            "byteOffset" : 10392
        },
        {
            "buffer" : 0,
            "byteLength" : 192,
            "byteOffset" : 10776
        }
    ],
    "buffers" : [
        {
            "byteLength" : 10968,
            "uri" : "engine-scale-pointer.bin"
        }
    ]
}
