{
    "asset" : {
        "generator" : "Khronos glTF Blender I/O v1.5.17",
        "version" : "2.0"
    },
    "scene" : 0,
    "scenes" : [
        {
            "extras" : {
                "glTF2ExportSettings" : {
                    "export_animations" : 0,
                    "export_apply" : 1,
                    "export_extras" : 1,
                    "export_format" : "GLTF_SEPARATE",
                    "export_morph" : 0,
                    "export_skins" : 0,
                    "export_tangents" : 1
                }
            },
            "name" : "Scene",
            "nodes" : [
                0,
                1,
                2,
                3,
                4,
                5
            ]
        }
    ],
    "nodes" : [
        {
            "extras" : {
                "shader" : "basic,color"
            },
            "mesh" : 0,
            "name" : "CylinderY"
        },
        {
            "extras" : {
                "shader" : "basic,color"
            },
            "mesh" : 1,
            "name" : "CylinderX"
        },
        {
            "extras" : {
                "shader" : "basic,color"
            },
            "mesh" : 2,
            "name" : "CylinderZ"
        },
        {
            "extras" : {
                "shader" : "basic,color"
            },
            "mesh" : 3,
            "name" : "ConeY"
        },
        {
            "extras" : {
                "shader" : "basic,color"
            },
            "mesh" : 4,
            "name" : "ConeZ"
        },
        {
            "extras" : {
                "shader" : "basic,color"
            },
            "mesh" : 5,
            "name" : "ConeX"
        }
    ],
    "materials" : [
        {
            "doubleSided" : true,
            "name" : "MovePointerY",
            "pbrMetallicRoughness" : {
                "baseColorFactor" : [
                    0,
                    1,
                    0,
                    1
                ],
                "metallicFactor" : 0,
                "roughnessFactor" : 0
            }
        },
        {
            "doubleSided" : true,
            "name" : "MovePointerX",
            "pbrMetallicRoughness" : {
                "baseColorFactor" : [
                    1,
                    0,
                    0,
                    1
                ],
                "metallicFactor" : 0,
                "roughnessFactor" : 0.5
            }
        },
        {
            "doubleSided" : true,
            "name" : "MovePointerZ",
            "pbrMetallicRoughness" : {
                "baseColorFactor" : [
                    0,
                    0,
                    1,
                    1
                ],
                "metallicFactor" : 0,
                "roughnessFactor" : 0.5
            }
        }
    ],
    "meshes" : [
        {
            "name" : "Cylinder",
            "primitives" : [
                {
                    "attributes" : {
                        "POSITION" : 0,
                        "NORMAL" : 1,
                        "TEXCOORD_0" : 2
                    },
                    "indices" : 3,
                    "material" : 0
                }
            ]
        },
        {
            "name" : "Cylinder.001",
            "primitives" : [
                {
                    "attributes" : {
                        "POSITION" : 4,
                        "NORMAL" : 5,
                        "TEXCOORD_0" : 6
                    },
                    "indices" : 7,
                    "material" : 1
                }
            ]
        },
        {
            "name" : "Cylinder.002",
            "primitives" : [
                {
                    "attributes" : {
                        "POSITION" : 8,
                        "NORMAL" : 9,
                        "TEXCOORD_0" : 10
                    },
                    "indices" : 11,
                    "material" : 2
                }
            ]
        },
        {
            "name" : "Cone",
            "primitives" : [
                {
                    "attributes" : {
                        "POSITION" : 12,
                        "NORMAL" : 13,
                        "TEXCOORD_0" : 14
                    },
                    "indices" : 15,
                    "material" : 0
                }
            ]
        },
        {
            "name" : "Cone.001",
            "primitives" : [
                {
                    "attributes" : {
                        "POSITION" : 16,
                        "NORMAL" : 17,
                        "TEXCOORD_0" : 18
                    },
                    "indices" : 19,
                    "material" : 2
                }
            ]
        },
        {
            "name" : "Cone.002",
            "primitives" : [
                {
                    "attributes" : {
                        "POSITION" : 20,
                        "NORMAL" : 21,
                        "TEXCOORD_0" : 22
                    },
                    "indices" : 23,
                    "material" : 1
                }
            ]
        }
    ],
    "accessors" : [
        {
            "bufferView" : 0,
            "componentType" : 5126,
            "count" : 72,
            "max" : [
                0.04460488632321358,
                0.7817043662071228,
                0.04460488632321358
            ],
            "min" : [
                -0.04460488632321358,
                0,
                -0.04460488632321358
            ],
            "type" : "VEC3"
        },
        {
            "bufferView" : 1,
            "componentType" : 5126,
            "count" : 72,
            "type" : "VEC3"
        },
        {
            "bufferView" : 2,
            "componentType" : 5126,
            "count" : 72,
            "type" : "VEC2"
        },
        {
            "bufferView" : 3,
            "componentType" : 5123,
            "count" : 132,
            "type" : "SCALAR"
        },
        {
            "bufferView" : 4,
            "componentType" : 5126,
            "count" : 72,
            "max" : [
                0.7883306741714478,
                0.04460490494966507,
                0.04460488632321358
            ],
            "min" : [
                0,
                -0.04460490494966507,
                -0.04460488632321358
            ],
            "type" : "VEC3"
        },
        {
            "bufferView" : 5,
            "componentType" : 5126,
            "count" : 72,
            "type" : "VEC3"
        },
        {
            "bufferView" : 6,
            "componentType" : 5126,
            "count" : 72,
            "type" : "VEC2"
        },
        {
            "bufferView" : 7,
            "componentType" : 5123,
            "count" : 132,
            "type" : "SCALAR"
        },
        {
            "bufferView" : 8,
            "componentType" : 5126,
            "count" : 72,
            "max" : [
                0.04460488632321358,
                0.04460490494966507,
                0
            ],
            "min" : [
                -0.04460488632321358,
                -0.04460490494966507,
                -0.7809966206550598
            ],
            "type" : "VEC3"
        },
        {
            "bufferView" : 9,
            "componentType" : 5126,
            "count" : 72,
            "type" : "VEC3"
        },
        {
            "bufferView" : 10,
            "componentType" : 5126,
            "count" : 72,
            "type" : "VEC2"
        },
        {
            "bufferView" : 11,
            "componentType" : 5123,
            "count" : 132,
            "type" : "SCALAR"
        },
        {
            "bufferView" : 12,
            "componentType" : 5126,
            "count" : 48,
            "max" : [
                0.1115122139453888,
                1.0036098957061768,
                0.1115122139453888
            ],
            "min" : [
                -0.1115122139453888,
                0.780585527420044,
                -0.1115122139453888
            ],
            "type" : "VEC3"
        },
        {
            "bufferView" : 13,
            "componentType" : 5126,
            "count" : 48,
            "type" : "VEC3"
        },
        {
            "bufferView" : 14,
            "componentType" : 5126,
            "count" : 48,
            "type" : "VEC2"
        },
        {
            "bufferView" : 15,
            "componentType" : 5123,
            "count" : 66,
            "type" : "SCALAR"
        },
        {
            "bufferView" : 16,
            "componentType" : 5126,
            "count" : 48,
            "max" : [
                0.1115122139453888,
                0.1115122139453888,
                -0.780585527420044
            ],
            "min" : [
                -0.1115122139453888,
                -0.1115122064948082,
                -1.0036098957061768
            ],
            "type" : "VEC3"
        },
        {
            "bufferView" : 17,
            "componentType" : 5126,
            "count" : 48,
            "type" : "VEC3"
        },
        {
            "bufferView" : 18,
            "componentType" : 5126,
            "count" : 48,
            "type" : "VEC2"
        },
        {
            "bufferView" : 19,
            "componentType" : 5123,
            "count" : 66,
            "type" : "SCALAR"
        },
        {
            "bufferView" : 20,
            "componentType" : 5126,
            "count" : 48,
            "max" : [
                1.0036098957061768,
                0.1115122139453888,
                0.1115122139453888
            ],
            "min" : [
                0.780585527420044,
                -0.1115122064948082,
                -0.1115122139453888
            ],
            "type" : "VEC3"
        },
        {
            "bufferView" : 21,
            "componentType" : 5126,
            "count" : 48,
            "type" : "VEC3"
        },
        {
            "bufferView" : 22,
            "componentType" : 5126,
            "count" : 48,
            "type" : "VEC2"
        },
        {
            "bufferView" : 23,
            "componentType" : 5123,
            "count" : 66,
            "type" : "SCALAR"
        }
    ],
    "bufferViews" : [
        {
            "buffer" : 0,
            "byteLength" : 864,
            "byteOffset" : 0
        },
        {
            "buffer" : 0,
            "byteLength" : 864,
            "byteOffset" : 864
        },
        {
            "buffer" : 0,
            "byteLength" : 576,
            "byteOffset" : 1728
        },
        {
            "buffer" : 0,
            "byteLength" : 264,
            "byteOffset" : 2304
        },
        {
            "buffer" : 0,
            "byteLength" : 864,
            "byteOffset" : 2568
        },
        {
            "buffer" : 0,
            "byteLength" : 864,
            "byteOffset" : 3432
        },
        {
            "buffer" : 0,
            "byteLength" : 576,
            "byteOffset" : 4296
        },
        {
            "buffer" : 0,
            "byteLength" : 264,
            "byteOffset" : 4872
        },
        {
            "buffer" : 0,
            "byteLength" : 864,
            "byteOffset" : 5136
        },
        {
            "buffer" : 0,
            "byteLength" : 864,
            "byteOffset" : 6000
        },
        {
            "buffer" : 0,
            "byteLength" : 576,
            "byteOffset" : 6864
        },
        {
            "buffer" : 0,
            "byteLength" : 264,
            "byteOffset" : 7440
        },
        {
            "buffer" : 0,
            "byteLength" : 576,
            "byteOffset" : 7704
        },
        {
            "buffer" : 0,
            "byteLength" : 576,
            "byteOffset" : 8280
        },
        {
            "buffer" : 0,
            "byteLength" : 384,
            "byteOffset" : 8856
        },
        {
            "buffer" : 0,
            "byteLength" : 132,
            "byteOffset" : 9240
        },
        {
            "buffer" : 0,
            "byteLength" : 576,
            "byteOffset" : 9372
        },
        {
            "buffer" : 0,
            "byteLength" : 576,
            "byteOffset" : 9948
        },
        {
            "buffer" : 0,
            "byteLength" : 384,
            "byteOffset" : 10524
        },
        {
            "buffer" : 0,
            "byteLength" : 132,
            "byteOffset" : 10908
        },
        {
            "buffer" : 0,
            "byteLength" : 576,
            "byteOffset" : 11040
        },
        {
            "buffer" : 0,
            "byteLength" : 576,
            "byteOffset" : 11616
        },
        {
            "buffer" : 0,
            "byteLength" : 384,
            "byteOffset" : 12192
        },
        {
            "buffer" : 0,
            "byteLength" : 132,
            "byteOffset" : 12576
        }
    ],
    "buffers" : [
        {
            "byteLength" : 12708,
            "uri" : "engine-move-pointer.bin"
        }
    ]
}
